<?xml version="1.0" encoding="UTF-8"?>
<svg id="Layer_1" data-name="Layer 1" xmlns="http://www.w3.org/2000/svg" viewBox="0 0 441.7 441.7">
  <defs>
    <style>
      .cls-1 {
        fill: #7ca559;
      }
    </style>
  </defs>
  <path class="cls-1" d="M61.01,194.75l21.03,137.05c5.83,37.9,10.15,61.85,12.97,71.85s6.4,15.53,10.73,16.58v11.68h-42.06v-11.68c2.79-.21,4.87-1.47,6.21-3.79,1.01-1.89,1.84-4.79,2.49-8.68s.98-7.84.98-11.85c0-4.84-.22-9.68-.65-14.53-.34-3.58-1.66-12.84-3.97-27.79l-16.62-109.9-20.53,114.95c-2.17,12.21-3.47,20.37-3.9,24.47s-.65,8.37-.65,12.79c0,6.74.65,12.32,1.95,16.74s3.78,6.95,7.44,7.58v11.68H1.68v-11.68c2.46-1.05,4.58-3.26,6.36-6.63,2.99-5.47,5.83-12.84,8.53-22.11,2.7-9.26,5.78-23.47,9.25-42.63l23.13-127.58-19.3-123.47c-5.25-33.47-9.71-55.42-13.37-65.84-3.66-10.42-7.88-15.95-12.65-16.58V3.7h45.31v11.68c-3.85.63-6.49,3.37-7.91,8.21-1.42,4.85-2.13,10.21-2.13,16.1,0,7.79,1.16,19.16,3.47,34.1l15.03,98.21,17.42-96.32c2.02-11.37,3.26-19.15,3.72-23.37.46-4.21.69-8.53.69-12.95s-.29-8.31-.87-11.68c-.72-4.42-1.64-7.53-2.75-9.32-1.11-1.79-3.4-2.79-6.87-3V3.7h34.76v11.68c-2.75.63-4.99,2.53-6.72,5.68-2.6,4.85-4.99,11.37-7.16,19.58-2.17,8.21-5.23,23.37-9.18,45.47l-19.44,108.63Z"/>
  <path class="cls-1" d="M192.33,313.49l2.38,2.21-8.38,116.21h-75.88v-11.68h3.69c4.14,0,7.11-5.89,8.89-17.68,1.01-6.74,1.52-22.31,1.52-46.74V79.49c0-26.73-.67-43.47-2.02-50.21-1.88-9.26-4.67-13.9-8.38-13.9h-3.69V3.7h44.37v11.68c-5.2-.21-8.85,1.89-10.95,6.32-2.1,4.42-3.53,10-4.3,16.74-.77,6.74-1.16,22.85-1.16,48.32v269.05c0,17.47.39,29.48,1.16,36,.58,4.42,1.47,7.69,2.67,9.79s4.96,3.16,11.27,3.16h7.16c7.52,0,12.79-2.42,15.83-7.27,3.04-4.84,5.81-13.42,8.31-25.74,2.5-12.31,5.01-31.74,7.52-58.26Z"/>
  <path class="cls-1" d="M291.43,3.7v11.68c-3.47,2.74-6.1,7.58-7.88,14.53-2.55,10.32-4.82,26.11-6.79,47.37l-34.18,364.42h-2.67l-36.71-369.16c-1.88-18.95-3.2-30.52-3.97-34.74-1.21-6.52-2.69-11.63-4.44-15.31-1.76-3.68-4.13-6.05-7.12-7.11V3.7h40.04v11.68c-4.53,1.89-7.47,5.27-8.82,10.11-1.35,4.85-2.02,11.05-2.02,18.63,0,10.53,1.11,26.95,3.32,49.26l24.93,251.05,23.13-247.9c2.26-24.42,3.4-41.37,3.4-50.84,0-6.1-.7-11.95-2.1-17.53-1.4-5.58-3.76-9.52-7.08-11.84-.24-.21-.65-.52-1.23-.95V3.7h30.21Z"/>
  <path class="cls-1" d="M338.91,420.23v11.68h-41.99v-11.68h3.47c4.05,0,6.99-5.16,8.82-15.47,1.16-6.74,1.73-22.94,1.73-48.63V79.49c0-21.68-.31-36-.94-42.95-.48-5.26-1.47-9.79-2.96-13.58-2.12-5.05-4.34-7.58-6.65-7.58h-3.47V3.7h41.99v11.68h-3.54c-4,0-6.91,5.16-8.75,15.47-1.2,6.74-1.81,22.95-1.81,48.63v276.63c0,21.69.31,36,.94,42.94.48,5.27,1.49,9.79,3.04,13.58,2.07,5.05,4.26,7.58,6.58,7.58h3.54Z"/>
  <path class="cls-1" d="M388.2,420.23v11.68h-41.99v-11.68h3.47c4.05,0,6.99-5.16,8.82-15.47,1.16-6.74,1.73-22.94,1.73-48.63V79.49c0-21.68-.31-36-.94-42.95-.48-5.26-1.47-9.79-2.96-13.58-2.12-5.05-4.34-7.58-6.65-7.58h-3.47V3.7h41.99v11.68h-3.54c-4,0-6.91,5.16-8.75,15.47-1.2,6.74-1.81,22.95-1.81,48.63v276.63c0,21.69.31,36,.94,42.94.48,5.27,1.49,9.79,3.04,13.58,2.07,5.05,4.26,7.58,6.58,7.58h3.54Z"/>
  <path class="cls-1" d="M437.49,420.23v11.68h-41.99v-11.68h3.47c4.05,0,6.99-5.16,8.82-15.47,1.16-6.74,1.73-22.94,1.73-48.63V79.49c0-21.68-.31-36-.94-42.95-.48-5.26-1.47-9.79-2.96-13.58-2.12-5.05-4.34-7.58-6.65-7.58h-3.47V3.7h41.99v11.68h-3.54c-4,0-6.91,5.16-8.75,15.47-1.2,6.74-1.81,22.95-1.81,48.63v276.63c0,21.69.31,36,.94,42.94.48,5.27,1.49,9.79,3.04,13.58,2.07,5.05,4.26,7.58,6.58,7.58h3.54Z"/>
</svg>