<?xml version="1.0" encoding="UTF-8"?>
<svg id="Layer_1" data-name="Layer 1" xmlns="http://www.w3.org/2000/svg" xmlns:xlink="http://www.w3.org/1999/xlink" viewBox="0 0 1600 1600">
  <defs>
    <style>
      .cls-1 {
        fill: none;
      }

      .cls-2 {
        fill: #fff;
      }

      .cls-3 {
        fill: #384937;
      }

      .cls-4 {
        clip-path: url(#clippath);
      }

      .cls-5 {
        fill: #3d493d;
      }
    </style>
    <clipPath id="clippath">
      <path class="cls-1" d="M820.59,450.15v60.53c0,3.43-.57,6.73-1.62,9.82-4.26,12.56-16.51,21.63-30.93,21.63s-26.67-9.07-30.93-21.63c-1.05-3.09-1.62-6.39-1.62-9.82v-60.53c.15-.14.29-.27.45-.39,8.53-7.33,19.78-11.79,32.1-11.79s23.57,4.46,32.1,11.79c.15.13.29.26.45.39Z"/>
    </clipPath>
  </defs>
  <g>
    <circle class="cls-2" cx="799.97" cy="646.81" r="604.84"/>
    <path class="cls-3" d="M799.97,1264.14c-83.33,0-164.18-16.32-240.3-48.52-73.51-31.09-139.53-75.6-196.22-132.3-56.69-56.69-101.2-122.71-132.3-196.22-32.19-76.12-48.52-156.96-48.52-240.3s16.32-164.18,48.52-240.3c31.09-73.51,75.6-139.53,132.3-196.22,56.69-56.69,122.71-101.2,196.22-132.3,76.12-32.19,156.96-48.52,240.3-48.52s164.18,16.32,240.3,48.52c73.51,31.09,139.53,75.6,196.22,132.3,56.69,56.69,101.2,122.71,132.3,196.22,32.19,76.12,48.52,156.96,48.52,240.3s-16.32,164.18-48.52,240.3c-31.09,73.51-75.6,139.53-132.3,196.22-56.69,56.69-122.71,101.2-196.22,132.3-76.12,32.19-156.96,48.52-240.3,48.52ZM799.97,54.47c-79.97,0-157.54,15.66-230.56,46.54-70.53,29.83-133.88,72.54-188.28,126.95s-97.11,117.75-126.95,188.29c-30.88,73.02-46.54,150.59-46.54,230.56s15.66,157.54,46.54,230.56c29.83,70.53,72.54,133.88,126.95,188.29s117.75,97.11,188.29,126.95c73.02,30.88,150.59,46.54,230.56,46.54s157.54-15.66,230.56-46.54c70.53-29.83,133.88-72.54,188.29-126.95s97.11-117.75,126.95-188.29c30.88-73.02,46.54-150.59,46.54-230.56s-15.66-157.54-46.54-230.56c-29.83-70.53-72.54-133.88-126.95-188.29s-117.75-97.11-188.29-126.95c-73.02-30.88-150.59-46.54-230.56-46.54Z"/>
  </g>
  <path class="cls-3" d="M799.97,1051.6c-54.64,0-107.66-10.7-157.56-31.81-48.2-20.39-91.49-49.57-128.67-86.75-37.17-37.17-66.36-80.46-86.75-128.67-21.11-49.91-31.81-102.92-31.81-157.56s10.7-107.66,31.81-157.56c20.39-48.2,49.57-91.49,86.75-128.67,37.17-37.17,80.46-66.36,128.67-86.75,49.91-21.11,102.92-31.81,157.56-31.81s107.66,10.7,157.56,31.81c48.2,20.39,91.49,49.57,128.67,86.75,37.17,37.17,66.36,80.46,86.75,128.67,21.11,49.91,31.81,102.92,31.81,157.56s-10.7,107.66-31.81,157.56c-20.39,48.2-49.57,91.49-86.75,128.67-37.17,37.17-80.46,66.36-128.67,86.75-49.91,21.11-102.92,31.81-157.56,31.81ZM799.97,252.02c-53.3,0-105,10.44-153.67,31.02-47.01,19.88-89.23,48.35-125.49,84.61-36.26,36.26-64.73,78.48-84.61,125.49-20.58,48.67-31.02,100.37-31.02,153.67s10.44,105,31.02,153.67c19.88,47.01,48.35,89.23,84.61,125.49,36.26,36.26,78.48,64.72,125.49,84.61,48.67,20.58,100.37,31.02,153.67,31.02s105-10.44,153.67-31.02c47.01-19.88,89.23-48.35,125.49-84.61,36.26-36.26,64.72-78.48,84.61-125.49,20.58-48.67,31.02-100.37,31.02-153.67s-10.44-105-31.02-153.67c-19.88-47.01-48.35-89.23-84.61-125.49-36.26-36.26-78.48-64.73-125.49-84.61-48.67-20.58-100.37-31.02-153.67-31.02Z"/>
  <path class="cls-3" d="M1199.76,646.81c0,220.8-178.99,399.79-399.79,399.79s-399.79-178.99-399.79-399.79h799.58Z"/>
  <g>
    <path class="cls-3" d="M369.39,792.35l-100.92,31.15-5.14-16.66,100.92-31.15,5.14,16.66Z"/>
    <path class="cls-3" d="M358.1,757.3l-104.3,16.65-2.68-16.79,64.06-46.12-69.65,11.12-2.57-16.08,104.3-16.64,2.77,17.36-62.52,45.29,68.01-10.85,2.57,16.08Z"/>
    <path class="cls-3" d="M240.5,666.14l1.18-31.86c.3-8.05,1.42-14.1,3.37-18.13,1.95-4.03,5.13-7.7,9.53-10.99,4.4-3.29,10.04-5.8,16.93-7.51,6.89-1.71,15.4-2.38,25.52-2.01,9.12.34,17.01,1.66,23.68,3.97,6.67,2.31,11.91,5.12,15.73,8.43,3.82,3.31,6.64,7.24,8.47,11.8,1.83,4.56,2.61,10.36,2.35,17.41l-1.21,32.8-105.55-3.9ZM259,649.37l69.84,2.58.48-13.1c.21-5.62-.17-9.7-1.13-12.26s-2.48-4.68-4.55-6.37c-2.07-1.69-5.39-3.14-9.96-4.37-4.56-1.23-10.61-1.98-18.14-2.26-7.81-.29-14,.02-18.54.94-4.55.91-8.16,2.46-10.83,4.65-2.67,2.18-4.48,4.89-5.41,8.13-.71,2.42-1.2,7.14-1.46,14.15l-.29,7.92Z"/>
    <path class="cls-3" d="M352.51,581.1l-103.97-18.57,3.07-17.16,103.97,18.57-3.07,17.16Z"/>
    <path class="cls-3" d="M382.92,470.71l-5.93,18.01-25.09-.27-10.84,32.93,20.48,14.28-5.81,17.66-89.78-65.06,5.79-17.59,111.18.05ZM333.17,488.2l-40.97-.9,33.56,23.4,7.41-22.5Z"/>
    <path class="cls-3" d="M387.95,461.48l-91.87-52.11,8.39-14.79,78.84,3.97-61.35-34.8,8.03-14.16,91.87,52.11-8.67,15.29-77.11-3.65,59.91,33.98-8.03,14.16Z"/>
    <path class="cls-3" d="M382.62,281.05l24.78-24.28c6.77-6.63,12.13-10.67,16.09-12.13,3.96-1.46,8.41-1.55,13.36-.28,4.95,1.27,9.36,3.88,13.22,7.82,3.56,3.64,5.97,7.72,7.23,12.23,1.25,4.52,1.28,8.75.07,12.69,4.94-2.29,10-2.87,15.16-1.75,5.17,1.13,9.97,3.95,14.4,8.48,5.38,5.49,8.6,11.42,9.68,17.8,1.07,6.38.25,11.78-2.48,16.2-1.9,3.07-7.41,9.08-16.54,18.02l-21.05,20.62-73.92-75.44ZM407.38,281.41l17.09,17.45,8.23-8.07c4.94-4.84,7.91-7.92,8.91-9.23,1.79-2.43,2.57-4.96,2.34-7.59-.23-2.63-1.57-5.2-4.02-7.71-2.18-2.23-4.45-3.56-6.79-3.99-2.34-.43-4.37-.14-6.1.88-1.72,1.02-5.88,4.75-12.47,11.21l-7.2,7.06ZM436.77,311.41l19.71,20.12,11.6-11.37c5.09-4.98,8.09-8.45,9.02-10.39.92-1.95,1.11-4.18.57-6.69-.55-2.52-1.99-4.97-4.34-7.37-2.41-2.46-4.92-3.98-7.53-4.54-2.61-.56-5.07-.29-7.4.81-2.32,1.1-6.17,4.28-11.53,9.53l-10.11,9.9Z"/>
    <path class="cls-3" d="M489.43,253.89c-6.81-10.58-10.85-20.3-12.13-29.16-1.28-8.86-.47-16.59,2.42-23.19,2.89-6.6,7.93-12.22,15.12-16.84,10.42-6.71,21.47-8.19,33.16-4.46,11.68,3.73,22.26,12.95,31.72,27.65,9.57,14.86,13.56,28.71,12,41.54-1.34,11.32-7.24,20.34-17.71,27.07-10.54,6.78-21.21,8.48-32.02,5.1-12.33-3.89-23.18-13.13-32.56-27.71ZM504.18,243.54c6.58,10.22,13.45,16.63,20.62,19.24,7.17,2.61,13.63,2.07,19.37-1.63,5.78-3.72,8.95-9.34,9.49-16.86.54-7.51-2.57-16.52-9.33-27.03-6.63-10.3-13.38-16.72-20.25-19.27-6.87-2.55-13.3-1.89-19.29,1.96s-9.26,9.47-9.83,16.86c-.57,7.39,2.51,16.29,9.21,26.71Z"/>
    <path class="cls-3" d="M620.3,239.36l-32.64-81.45-23.87,9.57-6.65-16.58,63.86-25.59,6.65,16.58-23.81,9.54,32.64,81.45-16.18,6.49Z"/>
    <path class="cls-3" d="M740.73,205.28l-18.52,4.06-12.53-21.74-33.86,7.43-1.87,24.9-18.16,3.98,10.31-110.39,18.09-3.97,56.54,95.73ZM700.36,171.36l-20.08-35.72-3.06,40.8,23.14-5.08Z"/>
    <path class="cls-3" d="M751.18,204.93l-2.08-105.6,17-.33,36.83,69.82-1.39-70.52,16.28-.32,2.08,105.6-17.57.35-36.22-68.18,1.36,68.86-16.28.32Z"/>
    <path class="cls-3" d="M840.2,206.35l12.57-104.87,17.31,2.07-12.57,104.87-17.31-2.07Z"/>
    <path class="cls-3" d="M940.21,186.97l14.67,10.69c-5.59,10.74-12.06,17.95-19.4,21.64-7.34,3.69-15.36,4.37-24.03,2.06-10.91-2.9-18.63-9.46-23.17-19.66-5.22-11.78-5.63-25.9-1.24-42.38,4.63-17.41,12.18-29.98,22.65-37.73,9.1-6.72,19.42-8.55,30.94-5.48,9.38,2.5,16.38,7.79,21,15.88,3.29,5.75,4.8,13.38,4.5,22.89l-18.01.43c.4-5.81-.6-10.61-3-14.4-2.4-3.79-5.76-6.27-10.09-7.42-6.19-1.65-11.95-.3-17.29,4.05-5.34,4.35-9.66,12.71-12.96,25.11-3.42,12.86-3.95,22.51-1.59,28.95,2.36,6.44,6.58,10.47,12.66,12.09,4.46,1.19,8.77.48,12.94-2.11,4.17-2.59,7.97-7.46,11.41-14.59Z"/>
    <path class="cls-3" d="M1031.56,269.32l-17-8.39,3.78-24.81-31.09-15.34-17.01,18.28-16.67-8.23,76.98-79.79,16.61,8.2-15.61,110.07ZM1021.2,217.62l6.62-40.44-27.87,29.95,21.24,10.48Z"/>
    <path class="cls-3" d="M1040.27,276.35l62.67-83.94,13.97,10.43-51.98,69.62,34.87,26.03-10.69,14.32-48.84-36.46Z"/>
    <path class="cls-3" d="M1148.74,322.45l12.26,12.06c-9.33,9.94-10.66,19.07-3.99,27.39,3.31,4.12,6.98,6.5,11.03,7.13,4.05.63,7.66-.33,10.85-2.88,1.87-1.5,3.13-3.19,3.78-5.07.65-1.88.72-3.99.21-6.36-.51-2.36-2.37-7.58-5.59-15.65-2.9-7.22-4.4-13-4.5-17.35-.1-4.35.88-8.66,2.95-12.94,2.07-4.28,5.04-7.97,8.9-11.06,4.49-3.6,9.36-5.82,14.59-6.66,5.23-.84,10.21-.2,14.93,1.93,4.72,2.13,9.2,5.83,13.43,11.11,6.37,7.94,9.19,15.87,8.45,23.79-.73,7.91-5.01,15.22-12.81,21.91l-11.68-13.07c3.94-4.14,5.99-7.92,6.16-11.31.17-3.4-1.22-6.93-4.16-10.61-2.94-3.67-5.98-5.89-9.1-6.65-3.13-.76-5.83-.22-8.11,1.6-2.24,1.8-3.41,4.21-3.49,7.24-.09,3.03,1.55,8.52,4.91,16.48,3.51,8.45,5.39,15.08,5.65,19.89.25,4.81-.7,9.41-2.88,13.8-2.17,4.39-5.73,8.57-10.68,12.53-7.16,5.74-14.93,8.36-23.33,7.86-8.4-.5-16.36-5.43-23.87-14.8-13.28-16.56-11.25-33.34,6.1-50.32Z"/>
    <path class="cls-3" d="M1219.52,384.76c11.17-5.8,21.22-8.92,30.16-9.37,8.94-.45,16.56,1.07,22.87,4.57,6.3,3.49,11.43,9.03,15.37,16.62,5.71,11,6.16,22.14,1.36,33.43-4.8,11.29-14.96,20.96-30.48,29.01-15.69,8.14-29.85,10.84-42.48,8.09-11.14-2.39-19.58-9.1-25.31-20.14-5.78-11.13-6.48-21.91-2.1-32.35,5.02-11.91,15.22-21.86,30.61-29.85ZM1228.46,400.42c-10.78,5.6-17.81,11.85-21.07,18.75-3.27,6.9-3.32,13.38-.18,19.44,3.17,6.1,8.47,9.78,15.9,11.01,7.43,1.23,16.69-1.02,27.77-6.78,10.87-5.64,17.89-11.77,21.06-18.37,3.17-6.61,3.12-13.07-.16-19.39-3.28-6.32-8.57-10.1-15.88-11.35-7.3-1.25-16.45.98-27.45,6.69Z"/>
    <path class="cls-3" d="M1268.99,540.16l-1.74,18.07c-12.09.65-21.59-1.25-28.5-5.7-6.91-4.45-11.58-11-14-19.64-3.05-10.87-1.33-20.85,5.15-29.95,7.49-10.48,19.44-18.02,35.86-22.62,17.34-4.86,32.01-4.76,44.01.32,10.42,4.42,17.24,12.37,20.45,23.85,2.62,9.35,1.62,18.07-2.99,26.15-3.27,5.76-9.08,10.93-17.42,15.52l-9.52-15.29c5.2-2.61,8.83-5.91,10.88-9.91,2.05-4,2.47-8.15,1.26-12.46-1.73-6.16-5.82-10.44-12.28-12.83-6.46-2.39-15.86-1.85-28.21,1.61-12.81,3.59-21.39,8.04-25.74,13.35-4.35,5.31-5.67,10.99-3.97,17.05,1.24,4.44,4.04,7.8,8.4,10.07,4.35,2.27,10.48,3.07,18.37,2.41Z"/>
    <path class="cls-3" d="M1237.54,583.8l104.69-13.95,2.3,17.28-104.69,13.95-2.3-17.28Z"/>
    <path class="cls-3" d="M1243.13,620.5l105.6,1.71-1.04,64.26-17.86-.29.76-46.82-23.41-.38-.71,43.51-17.79-.29.71-43.51-28.67-.47-.78,48.41-17.86-.29,1.07-65.84Z"/>
    <path class="cls-3" d="M1237.3,721.68l86.42,15.23,4.46-25.33,17.6,3.1-11.94,67.76-17.6-3.1,4.45-25.26-86.42-15.23,3.03-17.17Z"/>
    <path class="cls-3" d="M1218.41,797.84l41.75,15.31,68.33-8.72-7.04,19.21-46.22,4.73,32.31,33.22-6.92,18.87-46.59-51-41.61-15.26,6-16.37Z"/>
  </g>
  <g>
    <path class="cls-3" d="M657,1181.39l-19.27-5.6,21.09-72.63c-8.95,4.54-18.66,7-29.14,7.38l5.08-17.49c5.51-.19,11.88-1.72,19.11-4.6,7.23-2.88,12.83-7.07,16.81-12.56l15.64,4.54-29.31,100.95Z"/>
    <path class="cls-3" d="M718.71,1169.93l19.53-.6c.16,3.98,1.17,6.99,3.01,9.05,1.84,2.06,4.4,3.21,7.68,3.47,4.13.33,7.79-1.29,10.99-4.86,3.19-3.57,5.67-11.3,7.42-23.2-5.49,5.44-12.01,7.86-19.56,7.26-8.21-.65-15.04-4.38-20.5-11.18-5.46-6.81-7.78-15.29-6.98-25.45.84-10.58,4.66-18.87,11.46-24.85,6.8-5.98,15.07-8.59,24.8-7.82,10.58.84,18.94,5.62,25.08,14.34,6.14,8.72,8.47,22.46,6.98,41.21-1.51,19.08-6.13,32.56-13.87,40.45-7.74,7.89-17.28,11.38-28.62,10.49-8.16-.65-14.59-3.34-19.28-8.08-4.69-4.74-7.4-11.48-8.14-20.24ZM767.45,1129.8c.51-6.45-.58-11.58-3.26-15.37-2.68-3.79-5.97-5.85-9.86-6.15-3.7-.29-6.89.92-9.57,3.65-2.68,2.72-4.28,7.41-4.8,14.05-.53,6.74.4,11.79,2.81,15.16,2.41,3.37,5.61,5.21,9.59,5.52,3.84.31,7.2-.96,10.08-3.79,2.87-2.83,4.54-7.19,5.01-13.07Z"/>
    <path class="cls-3" d="M893.08,1171.87l2.26,18.5-69.82,8.52c-.1-7.09,1.36-13.99,4.38-20.71,3.02-6.72,9.47-15.94,19.36-27.65,7.96-9.46,12.77-15.8,14.44-19.03,2.24-4.45,3.11-8.68,2.62-12.69-.54-4.44-2.15-7.71-4.83-9.81-2.68-2.09-6.12-2.89-10.33-2.37-4.16.51-7.31,2.16-9.47,4.97-2.15,2.8-3.06,7.14-2.73,12.99l-20.09.44c-.16-11.11,2.59-19.43,8.25-24.96,5.66-5.53,13.16-8.87,22.52-10.01,10.25-1.25,18.65.53,25.18,5.35,6.53,4.81,10.3,11.33,11.31,19.56.57,4.68.27,9.24-.89,13.67-1.16,4.43-3.28,9.19-6.35,14.26-2.04,3.37-5.85,8.31-11.43,14.85-5.58,6.53-9.1,10.85-10.54,12.94-1.45,2.1-2.58,4.1-3.4,6.03l39.55-4.82Z"/>
    <path class="cls-3" d="M937.16,1070.21c9.61-3.24,18.28-2.35,26,2.68,9.19,5.94,16.96,18.32,23.31,37.13,6.34,18.77,7.64,33.35,3.92,43.75-3.08,8.58-9.43,14.49-19.04,17.73-9.65,3.26-18.69,2.18-27.1-3.25-8.42-5.42-15.83-17.66-22.26-36.69-6.3-18.67-7.59-33.21-3.87-43.62,3.08-8.58,9.43-14.49,19.04-17.73ZM942.49,1085.98c-2.3.78-4.11,2.2-5.42,4.28-1.31,2.08-1.82,5.17-1.53,9.3.35,5.36,2.49,13.86,6.42,25.49s7.21,19.44,9.86,23.39,5.1,6.36,7.37,7.2c2.27.84,4.55.87,6.85.1s4.11-2.2,5.42-4.28c1.31-2.07,1.82-5.17,1.53-9.3-.34-5.31-2.47-13.79-6.4-25.43-3.93-11.64-7.22-19.43-9.86-23.39-2.64-3.96-5.1-6.37-7.38-7.23-2.28-.86-4.56-.91-6.87-.13Z"/>
  </g>
  <g>
    <rect class="cls-5" x="778.27" y="519.33" width="19.53" height="150.8"/>
    <g>
      <path class="cls-2" d="M812.16,1010.68c-.68,1.66-2.65,2.36-4.22,1.49-7.72-4.28-27.5-18.35-27.5-50.31v-128.04h10.85v128.04c0,21.67,10.87,33.12,17.92,38.28,3.3,2.41,4.51,6.77,2.95,10.54h0Z"/>
      <path class="cls-3" d="M791.29,833.81v128.04c0,21.67,10.87,33.12,17.92,38.28,3.3,2.41,4.51,6.77,2.95,10.54-.48,1.17-1.61,1.86-2.78,1.86-.49,0-.98-.12-1.44-.38-7.72-4.28-27.5-18.35-27.5-50.31v-128.04h10.85M797.29,827.81h-22.85v134.04c0,15.08,4.04,28.23,12.02,39.09,6.66,9.07,14.5,14.21,18.58,16.47,1.33.74,2.83,1.13,4.35,1.13,3.66,0,6.93-2.19,8.32-5.58,2.62-6.36.58-13.63-4.96-17.67-7.05-5.15-15.46-15.14-15.46-33.43v-134.04h0Z"/>
    </g>
    <g>
      <path class="cls-2" d="M872.66,671.22s18.44-59.67,87.88-67.26c0,0,9.13,117.14-76.8,107.93l-11.08-40.67Z"/>
      <path class="cls-3" d="M893.07,715.4c-3.12,0-6.34-.18-9.65-.53l-2.04-.22-11.84-43.49.26-.83c.2-.63,4.94-15.68,18.47-31.82,12.48-14.9,35.09-33.5,71.95-37.54l3.08-.34.24,3.09c.05.65,1.21,16.2-1.45,35.71-2.48,18.18-8.92,43.24-25.53,59.37-11.37,11.04-25.96,16.61-43.49,16.61ZM886.09,709.1c19.08,1.61,34.64-3.3,46.28-14.6,25.71-24.97,25.79-74.29,25.34-87.18-26.47,3.58-48.22,15.29-64.68,34.85-11.12,13.21-16.07,25.9-17.23,29.15l10.29,37.78Z"/>
    </g>
    <g>
      <path class="cls-2" d="M790.21,639.79s15.19-51.02,104.15-58.62c0,0,15.19,46.65-10.85,99.81l-93.3-41.19Z"/>
      <path class="cls-3" d="M884.94,684.89l-98.36-43.42.75-2.53c.17-.55,4.21-13.71,19.56-27.81,25.28-23.23,61.38-30.73,87.21-32.94l2.37-.2.74,2.26c.64,1.95,15.26,48.42-11.01,102.06l-1.27,2.59ZM794.04,638.2l88.02,38.86c20.4-43.79,12.55-82.98,10.08-92.68-24.54,2.37-57.62,9.71-80.86,30.86-10.51,9.56-15.38,18.72-17.24,22.96Z"/>
    </g>
    <g>
      <path class="cls-2" d="M847.81,747.92s22.68-37.65,132.26-28.97c0,0,14.1,85.71-86.79,90.05l-45.47-61.08Z"/>
      <path class="cls-3" d="M891.82,812.07l-47.62-63.97,1.04-1.72c.96-1.6,24.92-39.13,135.07-30.41l2.34.19.38,2.32c.24,1.45,5.61,35.92-16.36,62.95-15.33,18.86-39.97,29.15-73.26,30.58l-1.59.07ZM851.56,747.94l43.17,57.99c30.66-1.6,53.28-11.1,67.24-28.25,17.16-21.08,16.15-47.96,15.41-55.93-30.41-2.23-72.02-2-102.61,10.87-14.01,5.89-20.72,12.41-23.21,15.32Z"/>
    </g>
    <g>
      <path class="cls-2" d="M836.86,758.01s48.82-4.34,90.05,47.74c0,0-16.27,35.8-56.42,35.8-19.53,0-62.92-2.17-84.62-28.21l18.44-52.08,32.55-3.25Z"/>
      <path class="cls-3" d="M870.49,844.55c-40.9,0-70.96-10.13-86.93-29.29l-1.09-1.31,19.65-55.48,34.47-3.45c.52-.05,13-1.07,30.72,4.46,16.24,5.08,40.17,16.9,61.94,44.4l1.14,1.44-.76,1.67c-.17.38-17.56,37.56-59.15,37.56ZM789.28,812.7c15.08,16.92,43.1,25.85,81.21,25.85,33.34,0,49.22-25.59,52.87-32.43-20.4-25.12-42.48-36.06-57.54-40.81-16.41-5.18-28.24-4.35-28.69-4.31l-30.63,3.06-17.23,48.64Z"/>
    </g>
    <g>
      <path class="cls-2" d="M699.08,671.22s-18.44-59.67-87.88-67.26c0,0-9.13,117.14,76.8,107.93l11.08-40.67Z"/>
      <path class="cls-3" d="M678.67,715.4c-17.52,0-32.12-5.57-43.48-16.61-16.6-16.13-23.05-41.19-25.53-59.37-2.66-19.51-1.5-35.05-1.45-35.71l.24-3.09,3.08.34c36.86,4.03,59.47,22.64,71.95,37.54,13.52,16.14,18.27,31.19,18.47,31.82l.26.83-11.84,43.49-2.04.22c-3.31.35-6.53.53-9.65.53ZM614.04,607.32c-.45,12.89-.37,62.21,25.34,87.18,11.64,11.3,27.2,16.21,46.27,14.6l10.29-37.78c-1.15-3.24-6.11-15.94-17.23-29.15-16.46-19.55-38.21-31.27-64.68-34.85Z"/>
    </g>
    <g>
      <path class="cls-2" d="M781.53,639.79s-15.19-51.02-104.15-58.62c0,0-15.19,46.65,10.85,99.81l93.3-41.19Z"/>
      <path class="cls-3" d="M686.8,684.89l-1.27-2.59c-26.27-53.64-11.64-100.11-11.01-102.06l.74-2.26,2.37.2c25.83,2.21,61.93,9.71,87.21,32.94,15.35,14.1,19.4,27.26,19.56,27.81l.75,2.53-98.36,43.42ZM679.6,584.38c-2.47,9.69-10.32,48.88,10.08,92.68l88.02-38.86c-1.86-4.24-6.73-13.4-17.24-22.96-23.24-21.14-56.32-28.48-80.86-30.86Z"/>
    </g>
    <g>
      <path class="cls-2" d="M723.93,747.92s-22.68-37.65-132.26-28.97c0,0-14.1,85.71,86.79,90.05l45.47-61.08Z"/>
      <path class="cls-3" d="M679.92,812.07l-1.59-.07c-33.29-1.43-57.94-11.72-73.26-30.58-21.97-27.03-16.6-61.5-16.36-62.95l.38-2.32,2.34-.19c110.15-8.72,134.1,28.81,135.07,30.41l1.04,1.72-47.62,63.97ZM594.36,721.76c-.75,7.96-1.75,34.85,15.41,55.93,13.96,17.15,36.58,26.64,67.24,28.25l43.16-57.99c-2.49-2.91-9.2-9.42-23.21-15.32-30.59-12.87-72.21-13.1-102.61-10.87Z"/>
    </g>
    <g>
      <path class="cls-2" d="M734.88,758.01s-48.82-4.34-90.05,47.74c0,0,16.27,35.8,56.42,35.8,19.53,0,62.92-2.17,84.62-28.21l-18.44-52.08-32.55-3.25Z"/>
      <path class="cls-3" d="M701.25,844.55c-41.59,0-58.98-37.19-59.15-37.56l-.76-1.67,1.14-1.44c21.77-27.5,45.7-39.32,61.94-44.4,17.72-5.54,30.2-4.51,30.72-4.46h.03s34.44,3.45,34.44,3.45l19.65,55.48-1.09,1.31c-15.97,19.16-46.03,29.29-86.93,29.29ZM648.37,806.12c3.65,6.84,19.53,32.43,52.87,32.43,38.11,0,66.14-8.93,81.21-25.85l-17.23-48.64-30.63-3.06c-.45-.04-12.28-.88-28.69,4.31-15.06,4.76-37.14,15.7-57.54,40.81Z"/>
    </g>
    <g>
      <path class="cls-2" d="M858.56,663.62c0,17.18-32.17,31.22-72.69,32.17-40.52-.94-72.69-14.98-72.69-32.17s32.17-31.22,72.69-32.17c40.52.94,72.69,14.98,72.69,32.17Z"/>
      <path class="cls-3" d="M863.45,663.62c-.53,23.18-36.84,33.8-55.48,36.58-7.41,1.13-14.53,1.63-22.1,1.75-1.8-.06-3.05-1.83-4.49-2.71-12.98-.86-25.96-2.73-38.42-6.78-13-4.33-32.19-12.74-32.77-28.84,1.06-24.51,45.44-33.11,64.82-34.48,23.69-1.74,53.96,1.12,74.6,13.83,6.95,4.33,14,11.66,13.84,20.65h0ZM853.66,663.62c-.34-5.67-4.54-9.83-9.12-13.18-15.58-10.58-35.55-14.25-54.17-15.87-.05,0-.11,0-.16-.02-.05-.05-.11-.07-.16-.06-.21-.03-1.37-.06-1.61-.07-7.74-.19-15.65.61-23.34,1.67-15.29,2.43-35.79,7.28-45.92,19.54-11.54,15.92,13.33,26.93,25.73,30.65,11.86,3.57,24.44,5.36,36.81,5.75,1.4-.67,2.5-2.43,4.15-2.4,6.61-.26,13.65-.84,20.28-1.78,13.32-1.78,45.86-8.4,47.51-24.21h0Z"/>
    </g>
    <g>
      <path class="cls-2" d="M771.65,779.68s-145.26-19.5-102.95-135.58c0,0,105.01,16.21,102.95,135.58Z"/>
      <path class="cls-3" d="M774.59,783.1l-3.34-.45c-.75-.1-18.56-2.55-40.1-10.76-20.02-7.63-47-21.88-61.86-46.45-13.84-22.89-14.99-50.61-3.41-82.38l.84-2.31,2.43.38c1.1.17,27.28,4.39,53.56,23.57,24.29,17.73,53.02,52.08,51.94,115.03l-.06,3.37ZM670.66,647.53c-10.01,28.95-8.75,54.1,3.75,74.79,23.42,38.75,79.89,51.23,94.27,53.83-.02-25.23-5-47.58-14.83-66.48-8.21-15.77-19.8-29.22-34.47-39.97-20.64-15.13-41.71-20.65-48.72-22.16Z"/>
    </g>
    <g>
      <path class="cls-2" d="M800.09,779.68s145.26-19.5,102.95-135.58c0,0-105.01,16.21-102.95,135.58Z"/>
      <path class="cls-3" d="M797.14,783.1l-.06-3.37c-1.08-62.95,27.64-97.3,51.94-115.03,26.28-19.18,52.46-23.4,53.56-23.57l2.43-.38.84,2.31c11.58,31.77,10.43,59.49-3.41,82.38-14.86,24.56-41.84,38.81-61.86,46.45-21.54,8.21-39.35,10.66-40.1,10.76l-3.34.45ZM901.08,647.53c-7,1.51-28.08,7.03-48.72,22.16-14.67,10.75-26.26,24.2-34.47,39.97-9.83,18.9-14.82,41.25-14.83,66.48,14.38-2.6,70.84-15.07,94.27-53.83,12.5-20.68,13.76-45.83,3.75-74.79Z"/>
    </g>
    <g>
      <path class="cls-2" d="M1102.5,570.14s18.61-22.11,44.65-19.64c0,0,3.25,17.66-11.93,36.1-15.19,18.44-30.38,19.53-30.38,19.53,0,0-13.92,13.02-15.1,9.76s12.76-45.75,12.76-45.75Z"/>
      <path class="cls-3" d="M1090.53,619.42c-.42,0-.72-.07-.95-.13-1.25-.3-2.22-1.17-2.66-2.39-.38-1.05-1.53-4.23,12.73-47.7l.18-.55.37-.44c.8-.95,19.91-23.28,47.22-20.7l2.26.21.41,2.23c.14.78,3.33,19.25-12.57,38.55-13.63,16.55-27.37,19.85-31.36,20.47-9.93,9.17-13.87,10.45-15.64,10.45ZM1105.16,571.66c-5.11,15.61-10.26,32.7-11.93,40.18,2.52-1.75,6.16-4.73,9.56-7.91l.78-.73,1.06-.08c.12-.01,14.2-1.36,28.28-18.44,11.1-13.48,11.78-26.27,11.52-31.36-20.95-.69-36.71,15.53-39.26,18.34Z"/>
    </g>
    <g>
      <path class="cls-2" d="M1086.06,542.11s16.6-16.27,32.88-17.36c0,0,13.94,47.55-23.87,50.99s-9.01-33.63-9.01-33.63Z"/>
      <path class="cls-3" d="M1090.52,578.96c-8.37,0-13.89-2.36-16.45-7.03-6.01-10.99,8.01-29.58,9.62-31.66l.27-.3c.71-.7,17.59-17.06,34.78-18.21l2.4-.16.68,2.31c.31,1.07,7.56,26.4-3.37,42.46-4.94,7.26-12.71,11.42-23.11,12.36-1.7.15-3.31.23-4.82.23ZM1088.3,544.12c-5.16,6.72-12.07,19.27-8.97,24.93,2.2,4.02,9.62,4.24,15.46,3.7,8.52-.77,14.8-4.05,18.68-9.75,7.56-11.09,4.61-28.58,3.18-34.97-13.43,2.23-26.85,14.65-28.36,16.08Z"/>
    </g>
    <g>
      <path class="cls-2" d="M1038.31,576.99s-.74-48.98,37.23-62c0,0,22.78,25.97,18.98,46.07-3.79,20.11-45.02,54.82-45.02,54.82l-11.19-38.9Z"/>
      <path class="cls-3" d="M1047.9,621.16l-12.58-43.72v-.4c-.01-.52-.15-12.91,4.52-27.1,6.27-19.08,18.28-32.14,34.73-37.78l1.9-.65,1.33,1.51c.97,1.1,23.7,27.31,19.68,48.61-3.95,20.92-44.32,55.12-46.04,56.56l-3.54,2.98ZM1041.31,576.57l9.77,33.96c9.91-8.8,37.57-34.52,40.49-50.02,2.97-15.75-12.34-36.21-16.99-41.97-31.86,12.5-33.22,53.65-33.27,58.04Z"/>
    </g>
    <path class="cls-3" d="M1108.03,543.66s17.42,12.55,10.91,44.02l-27.1,17.35,16.19-61.37Z"/>
    <g>
      <g>
        <path class="cls-2" d="M820.59,450.15v60.53c0,3.43-.57,6.73-1.62,9.82-4.26,12.56-16.51,21.63-30.93,21.63s-26.67-9.07-30.93-21.63c-1.05-3.09-1.62-6.39-1.62-9.82v-60.53c.15-.14.29-.27.45-.39,8.53-7.33,19.78-11.79,32.1-11.79s23.57,4.46,32.1,11.79c.15.13.29.26.45.39Z"/>
        <path class="cls-3" d="M823.33,448.93c-1.81,22.04-2.15,42.41-2,63.58-.52,17.6-15.68,32.07-33.29,32.1-18.68.43-35.58-14.89-35.55-33.87-.05-18.89-.19-43.22,0-61.95,5.01-4.57,10.79-8.18,17.11-10.52,16.94-6.42,37.07-3.35,51.16,8.11.87.76,2.01,1.51,2.57,2.55h0ZM817.84,451.36c.02.25.15.49.32.64-.21-.17-.93-.76-1.15-.94-12.46-10.15-30.32-12.85-45.31-7.17-5.2,1.92-10.08,4.87-14.2,8.48l.99-2.23c.14,17.44.1,41.24,0,58.86-1.07,16.68,12.98,30.62,29.54,30.61,12.92.41,26.3-7.89,30.38-20.61.72-2.12,1.15-4.34,1.32-6.58.45-20.37-.18-41.56-1.9-61.05h0Z"/>
      </g>
      <g class="cls-4">
        <path class="cls-3" d="M757.53,486.11s16.27-6.88,20.34-15.72c4.07-8.84,8.14-21.62,13.22-14.74,5.09,6.88-3.58,29.48,2.79,30.46,6.37.98,12.47-22.6,18.57-21.62s9.88,18.73,12.06,21.65,12.35-11.82,12.35-11.82l-17.29-49.13-62.04,3.35-19.32,34.97s-11.19,13.76-2.03,20.63,21.36,1.97,21.36,1.97Z"/>
      </g>
    </g>
    <g>
      <path class="cls-2" d="M1035.27,670.13s-7.46,109.58-112.7,301.6c0,0-8.68,18.44,9.76,5.42,18.44-13.02,115-227.83,118.26-302.69,0,0,75.94-14.1,96.56-99.81,0,0-28.21,5.42-52.08,20.61,0,0,17.36-22.78,16.27-34.72-1.69-18.64-8.68-19.53-25.15-7.06-13.04,9.87-28.42,25.66-38.57,41.23,0,0-2.46-30.92-23.07-37.43,0,0-49.08,30.38,10.72,112.83Z"/>
      <path class="cls-3" d="M922.77,984.82c-1.25,0-2.39-.35-3.37-1.17-3.72-3.12-.92-10.26.45-13.19l.08-.16c54.15-98.81,81.81-175.22,95.48-221.92,13.19-45.08,16.25-71.89,16.77-77.39-23.57-32.78-33.14-61.47-28.45-85.29,4.22-21.44,18.63-30.57,19.24-30.95l1.17-.72,1.31.41c15.76,4.98,21.76,22.28,23.96,32.45,9.53-12.96,22.67-26.48,34.97-35.79,10.48-7.93,17.09-10.38,22.1-8.16,4.52,2,6.94,7.35,7.85,17.34.68,7.5-4.66,18.1-9.54,26.03,20.72-10.47,40.79-14.41,41.78-14.61l4.57-.88-1.09,4.53c-10.88,45.22-37.15,70.56-57.27,83.85-17.68,11.68-33.53,16.29-39.33,17.7-1.22,17.72-9.22,66.51-53.53,173.25-23.61,56.89-54.72,121.59-65.86,129.46-3.81,2.69-7.94,5.21-11.29,5.21ZM925.25,973.09c-.9,1.94-1.6,4.28-1.71,5.59,1-.29,3.12-1.18,7.07-3.97,7.6-5.36,35.04-57.62,63.78-126.85,46.03-110.9,52.54-158.29,53.21-173.52l.1-2.38,2.35-.44c.18-.03,18.83-3.65,39.66-17.46,18.43-12.22,42.29-35.12,53.32-75.38-8.91,2.22-28.93,8.05-46.33,19.12l-14.18,9.02,10.18-13.37c4.63-6.08,16.47-23.8,15.67-32.63-.82-9.04-2.79-11.73-4.3-12.4-2.6-1.14-8,1.36-16.05,7.46-13.77,10.42-28.63,26.31-37.86,40.48l-4.81,7.38-.7-8.77c-.02-.28-2.44-27.58-19.64-34.33-4.71,3.51-12.71,12.48-15.4,26.39-4.32,22.31,5.14,49.67,28.11,81.34l.64.88-.07,1.08c-.08,1.13-2.06,28.31-17,79.43-13.74,47.02-41.56,123.94-96.02,223.33Z"/>
    </g>
    <g>
      <path class="cls-2" d="M945.35,980.42s5.83,13.02,18.65,0c12.82-13.02,69.12-132.43,69.12-132.43,0,0-11.49-28.84-16.16-12.95-5.42,18.44-71.6,145.38-71.6,145.38Z"/>
      <path class="cls-3" d="M953.48,989.21c-.64,0-1.28-.06-1.91-.17-6.08-1.1-8.85-7.14-8.97-7.39l-.59-1.33.67-1.29c.66-1.27,66.11-126.88,71.39-144.84,1.31-4.46,3.47-6.79,6.43-6.92,6.47-.29,12.43,12.16,15.4,19.61l.48,1.21-.56,1.18c-2.31,4.89-56.67,120.02-69.7,133.25-4.37,4.44-8.62,6.68-12.65,6.68ZM948.78,980.33c.74,1.05,2.06,2.49,3.9,2.8,2.47.43,5.65-1.24,9.18-4.82,9.76-9.91,48.4-88.93,67.98-130.41-2.96-7.04-6.95-13.58-8.91-14.55-.23.29-.65,1-1.1,2.53-5.19,17.65-63.29,129.52-71.05,144.45Z"/>
    </g>
    <g>
      <path class="cls-2" d="M1097.24,726.55c-3.25,1.27-7.59-1.68-16.27-7.59-9.1-6.19-11.51-9.67-14.1-8.68-3.15,1.21-2.2,7.37-4.34,16.27-2.29,9.5-6.31,14.64-9.76,20.61-11.24,19.46-18.55,51.51-11.93,55.33,4.33,2.5,16.19-6.16,22.78-15.19,6.03-8.25,6.56-15.29,13.02-17.36,4.17-1.34,8.86.03,11.93,2.17,6.37,4.43,6.42,12.58,8.68,27.12,3.13,20.14,4.7,30.21,8.68,31.46,7.89,2.49,24.44-23.95,33.63-46.65,5.56-13.72,15.98-40.48,8.68-71.6-1.87-7.97-7.01-29.88-18.44-31.46-9.48-1.31-21.42,11.63-26.04,23.87-4.17,11.05-1.75,19.83-6.51,21.7Z"/>
      <path class="cls-3" d="M1106.96,833.86c-.66,0-1.31-.1-1.94-.29-5.76-1.81-7.11-10.54-10.74-33.86-.37-2.36-.68-4.55-.96-6.58-1.52-10.8-2.37-15.69-6.46-18.54-2.33-1.62-6.11-2.8-9.31-1.78-2.79.9-4.02,3.07-6.31,7.51-1.34,2.61-2.87,5.56-5.2,8.76-6.6,9.04-19.92,19.93-26.7,16.02-4.52-2.61-5.25-11.04-2.16-25.04,2.65-12.03,7.51-24.88,13-34.39.7-1.21,1.42-2.38,2.14-3.56,2.87-4.68,5.58-9.1,7.3-16.26.75-3.11,1.1-5.85,1.41-8.27.59-4.67,1.11-8.7,4.78-10.1,3.26-1.25,5.8.72,9.64,3.69,1.84,1.42,4.13,3.2,7.22,5.31,6.55,4.46,11.72,7.97,13.49,7.28h0c1.02-.4,1.39-3.33,1.78-6.44.47-3.72,1.06-8.35,3.02-13.53,5.17-13.69,18.18-27.32,29.26-25.78,13.47,1.86,18.91,25.03,20.95,33.75,7.67,32.69-3.88,61.23-8.82,73.42-5.33,13.15-22.65,48.68-35.37,48.68ZM1080.15,766.41c3.94,0,7.62,1.5,10.13,3.24,6.42,4.46,7.44,11.69,8.98,22.63.28,2.01.59,4.17.95,6.5,2.24,14.39,4.35,27.99,6.63,29.07,3.2.99,17.8-14.93,29.94-44.92,5.12-12.65,15.77-38.96,8.54-69.79-4.34-18.5-9.7-28.31-15.93-29.18-7.11-.98-18.19,9.69-22.82,21.96-1.71,4.52-2.22,8.58-2.68,12.16-.62,4.92-1.21,9.57-5.54,11.27h0c-4.71,1.85-9.51-1.41-19.06-7.91-3.25-2.21-5.62-4.05-7.52-5.53-1.51-1.17-3.07-2.38-3.82-2.72-.42.82-.72,3.2-.97,5.15-.31,2.44-.7,5.49-1.52,8.92-1.95,8.08-5.04,13.12-8.02,17.99-.7,1.13-1.39,2.26-2.06,3.42-5.1,8.82-9.66,20.84-12.21,32.15-3.15,13.94-1.44,18.61-.8,19.1,2.08.88,12.14-5.2,18.85-14.37,2.06-2.82,3.47-5.56,4.71-7.97,2.33-4.52,4.53-8.79,9.81-10.48,1.48-.48,2.98-.68,4.44-.68Z"/>
    </g>
    <g>
      <path class="cls-2" d="M845.54,1015.13s32.55-56.42,31.46-129.1c0,0-31.95,20.98-39.06,64.55-4.34,26.58-3.25,37.43,7.6,64.55Z"/>
      <path class="cls-3" d="M845.05,1021.99l-2.29-5.74c-10.97-27.42-12.28-38.55-7.77-66.15,7.24-44.37,39.02-65.69,40.37-66.58l4.56-3,.08,5.46c1.08,72.67-31.53,130.08-31.86,130.65l-3.09,5.35ZM874.01,892.16c-8.89,7.59-27.93,27.14-33.11,58.91-3.98,24.38-3.31,34.8,5.03,56.83,7.67-15.47,27.46-60.63,28.08-115.74Z"/>
    </g>
    <g>
      <path class="cls-2" d="M709.92,886.03c-8.4-3.47-5.77-16.95-15.19-20.61-6.42-2.5-13.47,1.51-18.44,4.34-12.69,7.22-25.8,27.12-19.53,27.12,19.53,0,19.43-.48,19.53,0,.08.4-17.28-1.51-30.38,7.59-2.95,2.05-8.36,5.93-8.68,11.93-.25,4.81,2.9,8.3,3.25,8.68,3.43,3.69,8.34,4.11,11.93,4.34,19.58,1.27,27.12,0,27.12,0,38.54-6.48,41.05-1.41,52.08-8.68,3.42-2.26,16.61-10.95,17.36-24.95.31-5.83-1.37-15.6-7.59-18.44-9.87-4.51-21.12,12.95-31.46,8.68Z"/>
      <path class="cls-3" d="M668.16,932.99c-4.09,0-9.34-.14-15.93-.57-3.59-.23-9.59-.62-13.94-5.29-.73-.79-4.36-5-4.05-10.88.4-7.59,7.1-12.25,9.96-14.24,2.73-1.9,5.61-3.35,8.49-4.46-.15-.3-.28-.62-.37-.96-1.77-6.71,12.1-23.53,22.49-29.44,5.28-3,13.26-7.54,21.01-4.53,6.12,2.38,8.19,8.01,9.86,12.54,1.36,3.71,2.54,6.92,5.39,8.09h0c3.77,1.55,8.36-1.25,13.22-4.23,5.61-3.43,11.97-7.33,18.35-4.41,8.1,3.7,9.65,15.57,9.34,21.33-.69,12.82-10.55,21.92-18.7,27.3-6.82,4.5-10.86,4.74-19.72,5.28-6.63.4-16.64,1.01-33.51,3.85-.21.04-3.74.6-11.88.61ZM674.91,893.68c2.12,0,3.84.3,4.32,2.58l.29,1.4-.9,1.12c-.95,1.17-2.06,1.17-3.75,1.17-4.25,0-17.2,0-27.24,6.99-2.32,1.61-7.15,4.97-7.4,9.63-.19,3.59,2.35,6.36,2.46,6.48,2.51,2.7,6.28,3.15,9.93,3.39,18.84,1.22,26.37.05,26.44.03,17.18-2.89,27.38-3.51,34.13-3.92,8.45-.51,11.3-.69,16.78-4.3,10.18-6.71,15.57-14.32,16.01-22.61.26-4.86-1.1-13.38-5.85-15.55-3.48-1.59-7.97,1.16-12.72,4.07-5.65,3.46-12.05,7.38-18.64,4.66h0c-5.28-2.18-7.12-7.17-8.73-11.57-1.5-4.09-2.8-7.62-6.4-9.02-5.1-1.98-11.32,1.56-15.87,4.15-9.09,5.17-17.74,16.94-19.36,21.52,8.64-.01,13.11-.12,15.32-.18.4,0,.79-.02,1.17-.02Z"/>
    </g>
    <g>
      <path class="cls-2" d="M591.67,958.72c-1.26,0-2.5-.54-3.36-1.59-1.62-1.97-39.75-48.92-56.09-97.93-.76-2.27.47-4.73,2.74-5.49,2.28-.76,4.73.47,5.49,2.74,15.82,47.47,54.19,94.71,54.57,95.18,1.52,1.86,1.24,4.59-.61,6.11-.81.66-1.78.98-2.75.98Z"/>
      <path class="cls-3" d="M536.34,853.48c1.82,0,3.51,1.15,4.12,2.97,15.82,47.47,54.19,94.71,54.57,95.18,1.52,1.86,1.24,4.59-.61,6.11-.81.66-1.78.98-2.75.98-1.26,0-2.5-.54-3.36-1.59-1.62-1.97-39.75-48.92-56.09-97.93-.76-2.27.47-4.73,2.74-5.49.46-.15.92-.22,1.37-.22M536.34,847.48h0c-1.11,0-2.21.18-3.27.53-5.41,1.8-8.34,7.67-6.54,13.08,16.69,50.07,55.49,97.83,57.14,99.84,1.97,2.41,4.89,3.79,8,3.79,2.38,0,4.7-.83,6.54-2.34,4.41-3.61,5.07-10.14,1.46-14.55-.38-.46-38.1-46.99-53.52-93.28-1.41-4.23-5.35-7.07-9.81-7.07h0Z"/>
    </g>
    <g>
      <g>
        <path class="cls-2" d="M693.12,991.54c2.7-1.36-8.15-25.23-17.91-36.08"/>
        <path class="cls-3" d="M694.47,994.22l-2.7-5.36c-.88.44-1.21,1.25-1.23,1.57.22-3.22-8.52-22.91-17.56-32.96l4.46-4.01c8.9,9.88,20.09,32.26,19.01,38.01-.32,1.69-1.38,2.45-1.98,2.75Z"/>
      </g>
      <g>
        <path class="cls-2" d="M693.12,995.88c-1.59,0-3.12-.87-3.88-2.39-.6-1.2-.6-2.54-.1-3.68-.78-4.64-8.98-22.36-17.16-31.45-1.6-1.78-1.46-4.53.32-6.13,1.78-1.6,4.53-1.46,6.13.32,8.52,9.46,20.58,32.51,19.33,39.15-.31,1.65-1.29,3-2.69,3.7-.63.32-1.29.46-1.95.46ZM691.16,987.67s0,0,0,0c0,0,0,0,0,0ZM691.17,987.67s0,0,0,0c0,0,0,0,0,0Z"/>
        <path class="cls-3" d="M675.21,951.12c1.19,0,2.37.48,3.23,1.44,8.52,9.46,20.58,32.51,19.33,39.15-.31,1.65-1.29,3-2.69,3.7-.63.32-1.29.46-1.95.46-1.59,0-3.12-.87-3.88-2.39-.6-1.2-.6-2.54-.1-3.68-.78-4.64-8.98-22.36-17.16-31.45-1.6-1.78-1.46-4.53.32-6.13.83-.75,1.87-1.11,2.9-1.11M691.17,987.67s0,0,0,0c0,0,0,0,0,0M691.16,987.67s0,0,0,0c0,0,0,0,0,0M675.21,945.12h0c-2.56,0-5.01.94-6.92,2.65-2.05,1.85-3.26,4.38-3.41,7.14-.15,2.76.79,5.41,2.64,7.46,7.04,7.82,13.89,22.48,15.42,27.34-.39,2.18-.07,4.44.94,6.47,1.77,3.51,5.31,5.69,9.24,5.69,1.6,0,3.21-.38,4.65-1.11,3.08-1.55,5.23-4.45,5.89-7.95.85-4.53-1.35-12.04-6.54-22.33-4.35-8.63-9.8-17.03-14.22-21.95-1.96-2.17-4.76-3.42-7.69-3.42h0Z"/>
      </g>
    </g>
    <g>
      <path class="cls-2" d="M471.24,662.54c0-1.08-17.36-35.8-7.59-53.16,9.76-17.36,40.76,17.94,40.76,17.94l3.78,48.71-14.16,3.87-22.78-17.36Z"/>
      <path class="cls-3" d="M494.03,682.9c-.65,0-1.29-.21-1.82-.61l-22.78-17.36c-.56-.43-.95-1.04-1.11-1.72-.11-.3-.43-1.07-.75-1.81-3.87-9.22-15.65-37.29-6.54-53.49,2.08-3.69,5.22-5.85,9.1-6.26,14-1.46,34.27,21.11,36.53,23.69.43.49.69,1.1.74,1.75l3.78,48.71c.11,1.44-.81,2.75-2.2,3.13l-14.16,3.87c-.26.07-.53.11-.79.11ZM473.78,660.7l20.88,15.91,10.34-2.83-3.51-45.22c-1.6-1.75-5.97-6.39-11.24-10.86-8.22-6.97-15.15-10.56-19.5-10.1-1.94.2-3.36,1.23-4.49,3.23-5.09,9.05-2.79,25.28,6.84,48.22.29.7.51,1.22.68,1.63ZM468.24,662.54h0s0,0,0,0ZM468.24,662.54h0s0,0,0,0Z"/>
    </g>
    <path class="cls-3" d="M521.15,588.76s-34.72,11.93-33.45,85c.69,39.6,30.63,20.34,30.63,20.34l2.82-105.34Z"/>
    <g>
      <path class="cls-2" d="M508.19,657.44s-.27-45.89,10.14-62.71c10.41-16.82,41.03,44.59,39.82,62.71-1.2,18.12-17.48,40.9-17.48,40.9l-32.49-40.9Z"/>
      <path class="cls-3" d="M540.68,701.34c-.91,0-1.78-.42-2.35-1.13l-32.49-40.9c-.42-.53-.65-1.18-.65-1.85-.01-1.91-.15-46.96,10.59-64.31,2.29-3.7,5.85-5.11,9.75-3.86,15.2,4.88,36.66,52.61,35.61,68.34-1.25,18.75-17.35,41.48-18.03,42.44-.55.77-1.42,1.23-2.36,1.26-.03,0-.05,0-.08,0ZM511.19,656.4l29.27,36.85c4.4-6.85,13.82-22.92,14.7-36.01.92-13.86-20.12-58.59-31.46-62.23-.92-.29-1.77-.4-2.82,1.3-9,14.54-9.65,53.28-9.69,60.09Z"/>
    </g>
    <g>
      <path class="cls-2" d="M499.45,680.98s-33.63-45.45-53.16-40.08,1.08,39,10.85,46.59,42.31,19.57,42.31,19.57v-26.08Z"/>
      <path class="cls-3" d="M499.45,710.07c-.35,0-.7-.06-1.04-.18-1.35-.5-33.1-12.23-43.12-20.02-4.23-3.29-9.78-10.47-13.81-17.86-3.57-6.55-7.5-15.96-5.97-23.64,1.05-5.26,4.5-8.84,9.98-10.34,9.21-2.53,21.59,3.79,36.8,18.79,10.89,10.73,19.21,21.93,19.56,22.41.38.52.59,1.14.59,1.78v26.08c0,.98-.48,1.9-1.28,2.46-.51.36-1.11.54-1.72.54ZM449.66,643.46c-.91,0-1.77.11-2.57.33-3.28.9-5.09,2.72-5.69,5.73-.91,4.55,1.05,11.7,5.36,19.6,4.22,7.74,9.3,13.72,12.23,16,7.29,5.67,28.53,14.16,37.47,17.6v-20.73c-2.08-2.73-9.45-12.14-18.41-20.97-11.62-11.44-21.55-17.56-28.39-17.56Z"/>
    </g>
    <g>
      <path class="cls-2" d="M535.25,686.41s0-34.72,22.78-48.82c0,0,27.12,38.36,0,89.7-27.12,51.34-80.65,1.98-80.65,1.98,0,0-25.67-24.41-31.1-47.19,0,0,39.06-8.68,49.91,17.36,0,0-10.62-37.97-.43-61.84,0,0,39.49,24.95,39.49,48.82Z"/>
      <path class="cls-3" d="M524.05,753.63c-9.56,0-20.05-3.25-31.29-9.7-10.2-5.86-17.12-12.2-17.41-12.46-1.11-1.05-26.42-25.32-31.98-48.7-.19-.78-.05-1.61.38-2.29.43-.68,1.11-1.16,1.89-1.34.42-.09,10.36-2.26,21.83-1.14,9.48.92,17.2,3.84,22.91,8.58-2.28-13.57-4.05-34.53,2.63-50.17.35-.81,1.03-1.42,1.87-1.69.84-.26,1.75-.14,2.49.33,1.33.84,26.48,16.92,36.66,36.18,2.47-11.77,8.36-27.48,22.43-36.19,1.35-.84,3.11-.48,4.03.82.29.41,7.18,10.28,10.66,26.71,3.2,15.09,3.98,38.81-10.45,66.12-7.42,14.05-17.49,22.25-29.93,24.39-2.18.37-4.42.56-6.72.56ZM450.07,684.46c6.59,20.76,29.15,42.4,29.39,42.62.23.21,26.57,24.15,50.31,20.07,10.5-1.81,19.12-8.96,25.62-21.27,10.86-20.56,14.21-41.35,9.95-61.8-2.23-10.69-6.07-18.48-8.2-22.24-18.6,13.98-18.88,44.26-18.88,44.57h0c0,1.66-1.34,3-3,3s-2.93-1.28-3-2.87h0v-.04s0,0,0,0c0-.02,0-.04,0-.06h0v-.02c0-8.89-6.47-19.65-18.72-31.11-6.29-5.88-12.65-10.57-16.29-13.11-7.4,22.71,1.74,56.07,1.84,56.42.43,1.53-.41,3.12-1.91,3.64-1.5.52-3.14-.22-3.75-1.68-8.05-19.32-34.27-17.41-43.36-16.12Z"/>
    </g>
    <g>
      <path class="cls-2" d="M842.28,802.49c-10.85,27.12-28.21,47.88-56.42,55.41-28.21-7.53-45.57-28.28-56.42-55.41-10.85-27.12,56.42-33.63,56.42-33.63,0,0,67.26,6.51,56.42,33.63Z"/>
      <path class="cls-3" d="M785.87,861l-.77-.21c-26.78-7.15-45.89-25.86-58.43-57.19-2.17-5.44-1.83-10.57,1.02-15.26,10.79-17.72,55.97-22.29,57.89-22.47l.29-.03.29.03c1.92.19,47.1,4.75,57.89,22.47,2.86,4.69,3.2,9.82,1.02,15.26h0c-12.53,31.33-31.65,50.04-58.43,57.19l-.77.21ZM785.87,771.88c-1.84.2-12.16,1.37-23.35,4.19-15.72,3.96-25.99,9.29-29.71,15.4-1.84,3.03-2.03,6.27-.58,9.91,11.66,29.15,29.21,46.63,53.63,53.41,24.42-6.78,41.97-24.27,53.63-53.41,1.46-3.64,1.27-6.88-.58-9.91-3.72-6.11-13.99-11.43-29.71-15.4-11.18-2.82-21.51-4-23.35-4.19Z"/>
    </g>
    <g>
      <path class="cls-2" d="M835.77,723.73c0,54.76-43.81,55.98-49.9,55.98s-49.9-1.22-49.9-55.98,49.9-83.97,49.9-83.97c0,0,49.9,29.21,49.9,83.97Z"/>
      <path class="cls-3" d="M840.6,723.73c.63,18.34-4.09,38.48-19.55,50.13-9.93,7.83-23.06,9.56-35.26,9.49-18.06-.29-36.39-9.3-44.96-25.65-5.74-10.44-7.36-22.46-7.33-34.12.05-23.32,10.05-45.75,25.29-63.04,7.89-8.99,16.81-16.83,27.02-23.19,2.31,1.29,4.54,2.67,6.66,4.13,27.15,18.38,47.59,48.75,48.13,82.25h0ZM830.93,723.73c1.13-31.18-16.96-59.97-41.1-78.6-1.63-1.26-3.35-2.52-5-3.59h2.09c-9.36,5.81-17.79,13.38-25.03,21.69-14.6,16.59-23.67,38.17-23.43,60.36.14,10.8,1.96,21.95,7.39,31.31,7.79,14.1,24.27,21.41,39.96,21.17,10.36-.2,20.01-5.2,27.99-11.42,12.14-9.8,16.73-25.67,17.14-40.92h0Z"/>
    </g>
  </g>
  <g>
    <g>
      <g>
        <g>
          <path class="cls-2" d="M552.07,1429.32v123.92c-45.86-9.94-93.48-15.18-142.33-15.18-78.06,0-152.98,13.37-222.58,37.94v-127.72c70.58-20.66,145.28-31.73,222.58-31.73,48.6,0,96.17,4.38,142.33,12.77Z"/>
          <path class="cls-3" d="M179.66,1586.6v-143.94l5.39-1.58c72.64-21.26,148.23-32.04,224.69-32.04,48.25,0,96.59,4.34,143.67,12.89l6.16,1.12v139.48l-9.09-1.97c-45.96-9.96-93.31-15.01-140.74-15.01-75.54,0-149.59,12.62-220.08,37.51l-10,3.53ZM194.66,1453.92v111.56c69.1-23.18,141.39-34.93,215.08-34.93,45.38,0,90.69,4.52,134.83,13.44v-108.4c-44.25-7.67-89.57-11.56-134.83-11.56-73.14,0-145.47,10.05-215.08,29.87Z"/>
        </g>
        <path class="cls-3" d="M484.81,1499s61.3,10.3,57.5,54.25l9.76-74.28-67.26,20.03Z"/>
      </g>
      <g>
        <g>
          <path class="cls-2" d="M1048.58,1429.32v123.92c45.86-9.94,93.48-15.18,142.33-15.18,78.06,0,152.98,13.37,222.58,37.94v-127.72c-70.58-20.66-145.28-31.73-222.58-31.73-48.6,0-96.17,4.38-142.33,12.77Z"/>
          <path class="cls-3" d="M1420.99,1586.6l-10-3.53c-70.5-24.89-144.54-37.51-220.08-37.51-47.43,0-94.79,5.05-140.74,15.01l-9.09,1.97v-139.48l6.16-1.12c47.08-8.55,95.42-12.89,143.67-12.89,76.45,0,152.05,10.78,224.69,32.04l5.39,1.58v143.94ZM1190.91,1530.56c73.69,0,145.98,11.74,215.08,34.93v-111.56c-69.61-19.83-141.95-29.87-215.08-29.87-45.25,0-90.58,3.89-134.83,11.56v108.4c44.14-8.92,89.45-13.44,134.83-13.44Z"/>
        </g>
        <path class="cls-3" d="M1115.84,1499s-61.3,10.3-57.5,54.25l-9.76-74.28,67.26,20.03Z"/>
      </g>
      <g>
        <path class="cls-2" d="M1109.33,1348.29v141.3c-99.89-19.45-203.07-29.64-308.66-29.64h-.71c-105.58,0-208.77,10.19-308.66,29.64v-141.3c100.18-17.88,203.33-27.21,308.66-27.21h.71c105.32,0,208.48,9.33,308.66,27.21Z"/>
        <path class="cls-3" d="M1116.83,1498.69l-8.93-1.74c-100.52-19.58-203.89-29.5-307.22-29.5h-.71c-103.34,0-206.7,9.93-307.22,29.5l-8.93,1.74v-156.68l6.18-1.1c101.6-18.13,205.89-27.33,309.97-27.33h.71c104.09,0,208.38,9.19,309.97,27.33l6.18,1.1v156.68ZM799.97,1452.45h.71c101.24,0,202.5,9.44,301.16,28.06v-125.93c-98.78-17.25-200.06-26-301.16-26h-.71c-101.09,0-202.38,8.75-301.16,26v125.93c98.65-18.63,199.92-28.06,301.16-28.06Z"/>
      </g>
    </g>
    <g>
      <path class="cls-3" d="M557.9,1449.69l-10.72-76.92,15.32-2.14,25.8,51.92c2.39,4.84,4.14,8.46,5.26,10.87.48-2.92,1.28-7.22,2.37-12.9l10.96-56.08,13.69-1.91,10.72,76.92-9.81,1.37-8.97-64.38-13.38,67.49-9.18,1.28-31.37-62.38,9.13,65.48-9.81,1.37Z"/>
      <path class="cls-3" d="M682.46,1416.75l9.92.35c-1.04,5.87-3.52,10.57-7.42,14.11-3.91,3.54-9.11,5.59-15.62,6.17-8.2.72-14.92-1.23-20.17-5.85-5.25-4.62-8.27-11.49-9.08-20.6-.83-9.43.95-16.96,5.34-22.59,4.39-5.63,10.46-8.79,18.2-9.48,7.49-.66,13.84,1.35,19.04,6.03,5.2,4.68,8.21,11.65,9.02,20.9.05.56.11,1.41.17,2.54l-41.79,3.69c.9,6.13,3.05,10.69,6.47,13.68s7.47,4.29,12.15,3.87c3.48-.31,6.37-1.48,8.68-3.53,2.3-2.05,3.99-5.14,5.08-9.28ZM649.92,1404.15l31.29-2.76c-.84-4.68-2.35-8.11-4.53-10.29-3.35-3.39-7.43-4.87-12.25-4.45-4.36.39-7.9,2.17-10.62,5.35-2.72,3.18-4.01,7.23-3.9,12.15Z"/>
      <path class="cls-3" d="M705.08,1433.21l-3.73-77.57,9.52-.46,1.34,27.83c4.2-5.36,9.68-8.21,16.46-8.53,4.16-.2,7.82.45,10.97,1.94,3.15,1.49,5.45,3.66,6.91,6.48,1.46,2.83,2.32,7,2.59,12.5l1.71,35.61-9.52.46-1.71-35.61c-.23-4.76-1.43-8.18-3.59-10.25-2.17-2.07-5.14-3.01-8.91-2.83-2.82.14-5.44.99-7.86,2.58-2.42,1.58-4.09,3.65-5.03,6.21-.94,2.56-1.3,6.04-1.09,10.45l1.48,30.74-9.52.46Z"/>
      <path class="cls-3" d="M764.67,1430.76l-.91-56.25,8.58-.14.14,8.53c2.12-4.03,4.1-6.69,5.94-7.99,1.83-1.3,3.86-1.97,6.09-2.01,3.21-.05,6.5.92,9.85,2.91l-3.14,8.9c-2.35-1.34-4.69-1.99-7.03-1.95-2.08.03-3.94.69-5.58,1.97-1.64,1.28-2.79,3.04-3.46,5.28-1,3.41-1.47,7.12-1.41,11.15l.48,29.45-9.53.15Z"/>
      <path class="cls-3" d="M830.86,1430.53l2.75-77.61,10.27.36-2.42,68.45,38.22,1.35-.32,9.16-48.49-1.72Z"/>
      <path class="cls-3" d="M889.9,1433.08l3.56-56.15,9.52.6-3.56,56.15-9.52-.6ZM894.12,1366.51l.7-10.94,9.52.6-.7,10.94-9.52-.6Z"/>
      <path class="cls-3" d="M951.8,1417.3l9.23,2.05c-1.6,6.35-4.66,11.15-9.19,14.41-4.53,3.26-9.86,4.62-15.98,4.07-7.67-.69-13.61-3.75-17.82-9.18-4.21-5.43-5.9-12.82-5.06-22.18.54-6.05,2.02-11.25,4.43-15.61,2.41-4.36,5.77-7.49,10.07-9.39,4.3-1.9,8.86-2.64,13.68-2.2,6.09.55,10.92,2.53,14.52,5.96,3.59,3.43,5.68,8.02,6.26,13.78l-9.36.6c-.54-3.84-1.85-6.81-3.91-8.91-2.06-2.1-4.68-3.29-7.84-3.57-4.78-.43-8.83.94-12.12,4.1-3.3,3.16-5.28,8.45-5.94,15.88-.67,7.53.28,13.13,2.86,16.8,2.58,3.67,6.19,5.71,10.83,6.13,3.73.33,6.94-.53,9.65-2.59,2.7-2.06,4.6-5.44,5.7-10.13Z"/>
      <path class="cls-3" d="M966.69,1439.53l9.89-77.03,9.46,1.21-3.55,27.64c5.07-4.55,10.97-6.39,17.69-5.53,4.13.53,7.62,1.81,10.46,3.83,2.84,2.02,4.73,4.55,5.67,7.59.95,3.04,1.07,7.29.36,12.76l-4.54,35.36-9.46-1.21,4.54-35.36c.61-4.73.02-8.3-1.75-10.72-1.77-2.42-4.53-3.87-8.28-4.35-2.8-.36-5.53.03-8.19,1.17-2.66,1.14-4.67,2.88-6.04,5.23-1.37,2.35-2.34,5.72-2.9,10.1l-3.92,30.53-9.46-1.21Z"/>
      <path class="cls-3" d="M1047.82,1442.43l.03,8.54c-2.74.13-5.16.04-7.25-.3-3.42-.55-5.98-1.51-7.69-2.89-1.71-1.38-2.81-3.01-3.3-4.9-.49-1.88-.28-5.65.62-11.3l5.09-31.96-6.9-1.1,1.17-7.32,6.91,1.1,2.19-13.76,10.26-4.16-3.09,19.41,9.47,1.51-1.17,7.32-9.47-1.51-5.18,32.49c-.43,2.69-.54,4.44-.33,5.26.21.82.65,1.52,1.33,2.09.68.57,1.71.97,3.11,1.19,1.05.17,2.44.26,4.19.29Z"/>
    </g>
  </g>
</svg>