<?xml version="1.0" encoding="UTF-8"?>
<svg id="Layer_1" data-name="Layer 1" xmlns="http://www.w3.org/2000/svg" viewBox="0 0 441.7 441.7">
  <defs>
    <style>
      .cls-1 {
        fill: #fff;
      }

      .cls-2 {
        fill: #7ca559;
      }
    </style>
  </defs>
  <rect class="cls-2" width="441.7" height="441.7"/>
  <g>
    <path class="cls-1" d="M82.94,215.23l18.12,36.62c5.02,10.13,8.75,16.53,11.18,19.2s5.51,4.15,9.25,4.43v3.12h-36.25v-3.12c2.41-.06,4.19-.39,5.36-1.01.87-.51,1.59-1.28,2.15-2.32s.84-2.1.84-3.17c0-1.29-.19-2.59-.56-3.88-.29-.96-1.43-3.43-3.43-7.43l-14.32-29.37-17.69,30.72c-1.87,3.26-2.99,5.44-3.36,6.54s-.56,2.24-.56,3.42c0,1.8.56,3.29,1.68,4.47s3.26,1.86,6.41,2.03v3.12h-29.96v-3.12c2.12-.28,3.94-.87,5.48-1.77,2.57-1.46,5.02-3.43,7.35-5.91,2.33-2.47,4.98-6.27,7.97-11.39l19.93-34.09-16.63-32.99c-4.53-8.94-8.37-14.81-11.52-17.59-3.16-2.79-6.79-4.26-10.9-4.43v-3.12h39.05v3.12c-3.32.17-5.59.9-6.82,2.19-1.23,1.29-1.84,2.73-1.84,4.3,0,2.08,1,5.12,2.99,9.11l12.95,26.24,15.01-25.74c1.74-3.04,2.81-5.12,3.21-6.24.39-1.12.59-2.28.59-3.46s-.25-2.22-.75-3.12c-.62-1.18-1.41-2.01-2.37-2.49-.96-.48-2.93-.74-5.92-.8v-3.12h29.96v3.12c-2.37.17-4.3.68-5.79,1.52-2.24,1.3-4.3,3.04-6.17,5.23-1.87,2.19-4.5,6.24-7.91,12.15l-16.75,29.03Z"/>
    <path class="cls-1" d="M196.1,246.96l2.06.59-7.22,31.05h-65.39v-3.12h3.18c3.57,0,6.12-1.57,7.66-4.73.87-1.8,1.31-5.96,1.31-12.49v-73.84c0-7.14-.58-11.62-1.74-13.42-1.62-2.47-4.03-3.71-7.22-3.71h-3.18v-3.12h38.24v3.12c-4.48-.06-7.63.51-9.43,1.69-1.81,1.18-3.04,2.67-3.71,4.47-.66,1.8-1,6.1-1,12.91v71.9c0,4.67.33,7.88,1,9.62.5,1.18,1.27,2.05,2.3,2.62s4.28.84,9.72.84h6.17c6.48,0,11.02-.65,13.64-1.94,2.62-1.29,5-3.59,7.16-6.88,2.16-3.29,4.32-8.48,6.48-15.57Z"/>
    <path class="cls-1" d="M281.5,164.18v3.12c-2.99.73-5.25,2.03-6.79,3.88-2.2,2.76-4.15,6.98-5.85,12.66l-29.46,97.38h-2.3l-31.64-98.65c-1.62-5.06-2.76-8.16-3.43-9.28-1.04-1.74-2.32-3.11-3.83-4.09-1.52-.98-3.56-1.62-6.13-1.9v-3.12h34.5v3.12c-3.9.51-6.44,1.41-7.6,2.7-1.16,1.29-1.74,2.95-1.74,4.98,0,2.81.96,7.2,2.86,13.16l21.49,67.09,19.93-66.24c1.95-6.53,2.93-11.05,2.93-13.59,0-1.63-.6-3.19-1.81-4.68-1.21-1.49-3.24-2.55-6.1-3.16-.21-.06-.56-.14-1.06-.25v-3.12h26.03Z"/>
    <path class="cls-1" d="M322.41,275.48v3.12h-36.18v-3.12h2.99c3.49,0,6.02-1.38,7.6-4.13,1-1.8,1.49-6.13,1.49-13v-73.92c0-5.79-.27-9.62-.81-11.48-.42-1.41-1.27-2.62-2.55-3.63-1.83-1.35-3.74-2.03-5.73-2.03h-2.99v-3.12h36.18v3.12h-3.05c-3.45,0-5.96,1.38-7.54,4.14-1.04,1.8-1.56,6.13-1.56,12.99v73.92c0,5.79.27,9.62.81,11.48.41,1.41,1.29,2.62,2.62,3.63,1.78,1.35,3.67,2.03,5.67,2.03h3.05Z"/>
    <path class="cls-1" d="M364.89,275.48v3.12h-36.18v-3.12h2.99c3.49,0,6.02-1.38,7.6-4.13,1-1.8,1.49-6.13,1.49-13v-73.92c0-5.79-.27-9.62-.81-11.48-.42-1.41-1.27-2.62-2.55-3.63-1.83-1.35-3.74-2.03-5.73-2.03h-2.99v-3.12h36.18v3.12h-3.05c-3.45,0-5.96,1.38-7.54,4.14-1.04,1.8-1.56,6.13-1.56,12.99v73.92c0,5.79.27,9.62.81,11.48.41,1.41,1.29,2.62,2.62,3.63,1.78,1.35,3.67,2.03,5.67,2.03h3.05Z"/>
    <path class="cls-1" d="M407.36,275.48v3.12h-36.18v-3.12h2.99c3.49,0,6.02-1.38,7.6-4.13,1-1.8,1.49-6.13,1.49-13v-73.92c0-5.79-.27-9.62-.81-11.48-.42-1.41-1.27-2.62-2.55-3.63-1.83-1.35-3.74-2.03-5.73-2.03h-2.99v-3.12h36.18v3.12h-3.05c-3.45,0-5.96,1.38-7.54,4.14-1.04,1.8-1.56,6.13-1.56,12.99v73.92c0,5.79.27,9.62.81,11.48.41,1.41,1.29,2.62,2.62,3.63,1.78,1.35,3.67,2.03,5.67,2.03h3.05Z"/>
  </g>
</svg>